<?xml version="1.0" encoding="UTF-8"?>
<svg version="1.1" xmlns="http://www.w3.org/2000/svg" width="2286" height="2286">
<path d="M0 0 C120.45 0 240.9 0 365 0 C365 0.66 365 1.32 365 2 C367.31 2 369.62 2 372 2 C372 2.66 372 3.32 372 4 C374.31 4.66 376.62 5.32 379 6 C379 6.99 379 7.98 379 9 C381.64 9 384.28 9 387 9 C387 9.99 387 10.98 387 12 C388.98 12.33 390.96 12.66 393 13 C393.33 13.99 393.66 14.98 394 16 C396.475 16.495 396.475 16.495 399 17 C399 17.99 399 18.98 399 20 C399.804375 20.12375 400.60875 20.2475 401.4375 20.375 C402.283125 20.58125 403.12875 20.7875 404 21 C404.33 21.66 404.66 22.32 405 23 C408.02934491 23.65772428 408.02934491 23.65772428 411 24 C411 24.99 411 25.98 411 27 C411.9590625 27.1546875 411.9590625 27.1546875 412.9375 27.3125 C413.618125 27.539375 414.29875 27.76625 415 28 C415.33 28.99 415.66 29.98 416 31 C417.31647119 31.69937532 418.65022151 32.36729133 420 33 C420.33 33.66 420.66 34.32 421 35 C421.99 35.33 422.98 35.66 424 36 C424 36.99 424 37.98 424 39 C425.65 39 427.3 39 429 39 C429 39.99 429 40.98 429 42 C429.5775 42.2475 430.155 42.495 430.75 42.75 C434.3051959 44.72510883 436.56744117 47.44947058 439.0625 50.625 C440.95481493 53.18227196 440.95481493 53.18227196 444 55 C444 55.66 444 56.32 444 57 C444.99 57.66 445.98 58.32 447 59 C447 59.66 447 60.32 447 61 C447.99 61.33 448.98 61.66 450 62 C450 63.32 450 64.64 450 66 C450.99 66 451.98 66 453 66 C453 66.99 453 67.98 453 69 C454.32 69 455.64 69 457 69 C457.33 71.31 457.66 73.62 458 76 C458.99 76 459.98 76 461 76 C461.1546875 76.9590625 461.1546875 76.9590625 461.3125 77.9375 C461.539375 78.618125 461.76625 79.29875 462 80 C462.99 80.33 463.98 80.66 465 81 C465.33 83.31 465.66 85.62 466 88 C467.485 87.505 467.485 87.505 469 87 C469 88.32 469 89.64 469 91 C469.99 91.33 470.98 91.66 472 92 C473.17755913 94.94389782 473.03348696 95.89953913 472 99 C473.32 99 474.64 99 476 99 C476 101.64 476 104.28 476 107 C477.32 107 478.64 107 480 107 C480.33 110.3 480.66 113.6 481 117 C482.485 116.505 482.485 116.505 484 116 C484.04898437 116.63808594 484.09796875 117.27617188 484.1484375 117.93359375 C484.22320313 118.75988281 484.29796875 119.58617187 484.375 120.4375 C484.44460938 121.26121094 484.51421875 122.08492187 484.5859375 122.93359375 C484.72257812 123.61550781 484.85921875 124.29742188 485 125 C485.66 125.33 486.32 125.66 487 126 C487.4140625 128.50390625 487.4140625 128.50390625 487.625 131.5625 C487.73714844 133.08037109 487.73714844 133.08037109 487.8515625 134.62890625 C487.90054687 135.41136719 487.94953125 136.19382812 488 137 C488.99 137 489.98 137 491 137 C491 141.95 491 146.9 491 152 C492.32 152.33 493.64 152.66 495 153 C495 157.29 495 161.58 495 166 C510.37499179 166.03076142 525.74998265 166.05014353 541.125 166.0625 C542.26541748 166.0635033 543.40583496 166.06450661 544.58081055 166.06554031 C577.60999291 166.09279079 610.62743207 165.95600341 643.65080452 165.30930328 C645.73064865 165.26896467 647.81051968 165.23057702 649.89041138 165.19277954 C652.37380771 165.14665436 654.85712349 165.09582641 657.34030151 165.03915405 C658.95849289 165.00901718 658.95849289 165.00901718 660.609375 164.97827148 C662.0010791 164.94829323 662.0010791 164.94829323 663.42089844 164.91770935 C666 165 666 165 671 166 C671 195.7 671 225.4 671 256 C676.61 255.67 682.22 255.34 688 255 C692.0091124 254.96452113 695.99514755 254.93055169 700 255 C700.33 254.34 700.66 253.68 701 253 C714.91648861 252.92997824 728.83294999 252.87724477 742.74957848 252.84456348 C749.21104398 252.82888124 755.67239149 252.80759626 762.13378906 252.77368164 C768.36479483 252.74117951 774.59568681 252.72316629 780.82677078 252.71536827 C783.20872414 252.70980829 785.59067099 252.69895166 787.97257614 252.68280983 C791.29875084 252.66115733 794.62445022 252.65802798 797.95068359 252.65942383 C798.94402206 252.648638 799.93736053 252.63785217 800.96080017 252.6267395 C801.86386398 252.63086349 802.7669278 252.63498749 803.69735718 252.63923645 C804.48456839 252.63647107 805.27177959 252.63370569 806.08284569 252.63085651 C807.03183707 252.81358254 807.03183707 252.81358254 808 253 C810.25841883 256.38762824 810.24787606 257.51874178 810.24050903 261.48588562 C810.24325836 262.62592041 810.24600769 263.7659552 810.24884033 264.9405365 C810.24164978 266.19210037 810.23445923 267.44366425 810.22705078 268.7331543 C810.22734283 270.0503244 810.22763489 271.36749451 810.22793579 272.72457886 C810.22851031 276.33797674 810.21673997 279.95124221 810.20278788 283.56460929 C810.19029707 287.34025132 810.18911132 291.11589628 810.18673706 294.89155579 C810.18051743 302.041969 810.1641001 309.19232115 810.14403808 316.34270746 C810.12169409 324.48287958 810.11068943 332.6230546 810.10064721 340.76324975 C810.07973428 357.50886893 810.04454894 374.25442668 810 391 C810.66 390.34 811.32 389.68 812 389 C812 388.67 812 388.34 812 388 C847.64 388 883.28 388 920 388 C920 617.68 920 847.36 920 1084 C919.34 1084 918.68 1084 918 1084 C918.03480469 1084.69867187 918.06960938 1085.39734375 918.10546875 1086.1171875 C918.14607422 1087.48230469 918.14607422 1087.48230469 918.1875 1088.875 C918.22230469 1089.77992187 918.25710938 1090.68484375 918.29296875 1091.6171875 C918.14794922 1092.79667969 918.14794922 1092.79667969 918 1094 C917.01 1094.66 916.02 1095.32 915 1096 C914.7497843 1099.08365871 914.7497843 1099.08365871 915 1102 C913.68 1102.33 912.36 1102.66 911 1103 C911 1106.3 911 1109.6 911 1113 C910.34 1112.67 909.68 1112.34 909 1112 C908.34 1114.31 907.68 1116.62 907 1119 C906.34 1119 905.68 1119 905 1119 C904.71125 1119.969375 904.4225 1120.93875 904.125 1121.9375 C903 1125 903 1125 901 1126 C900.5359375 1127.7325 900.5359375 1127.7325 900.0625 1129.5 C899.5365625 1131.2325 899.5365625 1131.2325 899 1133 C898.01 1133.33 897.02 1133.66 896 1134 C896 1134.99 896 1135.98 896 1137 C894.68 1137 893.36 1137 892 1137 C892 1138.32 892 1139.64 892 1141 C891.01 1141 890.02 1141 889 1141 C888.67 1143.31 888.34 1145.62 888 1148 C886.68 1148 885.36 1148 884 1148 C884 1149.32 884 1150.64 884 1152 C882.68 1152 881.36 1152 880 1152 C880 1152.99 880 1153.98 880 1155 C879.01 1155.33 878.02 1155.66 877 1156 C876.67 1156.99 876.34 1157.98 876 1159 C875.01 1159.33 874.02 1159.66 873 1160 C872.67 1160.99 872.34 1161.98 872 1163 C871.01 1163.33 870.02 1163.66 869 1164 C868.67 1164.99 868.34 1165.98 868 1167 C866.35 1167.33 864.7 1167.66 863 1168 C863 1168.66 863 1169.32 863 1170 C862.360625 1170.103125 861.72125 1170.20625 861.0625 1170.3125 C860.381875 1170.539375 859.70125 1170.76625 859 1171 C858.67 1171.99 858.34 1172.98 858 1174 C855.4375 1175.1875 855.4375 1175.1875 853 1176 C853 1176.66 853 1177.32 853 1178 C851.02 1178 849.04 1178 847 1178 C847 1179.32 847 1180.64 847 1182 C845.5459375 1182.185625 845.5459375 1182.185625 844.0625 1182.375 C842.5465625 1182.684375 842.5465625 1182.684375 841 1183 C840.67 1183.66 840.34 1184.32 840 1185 C837.67843403 1185.40729228 835.3431213 1185.74438677 833 1186 C833.33 1186.99 833.66 1187.98 834 1189 C831.03 1189.33 828.06 1189.66 825 1190 C825.33 1190.99 825.66 1191.98 826 1193 C823.03 1193.33 820.06 1193.66 817 1194 C817 1194.99 817 1195.98 817 1197 C813.37 1197 809.74 1197 806 1197 C806 1197.99 806 1198.98 806 1200 C801.71 1200.66 797.42 1201.32 793 1202 C793 1202.66 793 1203.32 793 1204 C788.71 1204 784.42 1204 780 1204 C780 1204.66 780 1205.32 780 1206 C498.84 1206 217.68 1206 -72 1206 C-72 1205.34 -72 1204.68 -72 1204 C-181.89 1204 -291.78 1204 -405 1204 C-405 1203.34 -405 1202.68 -405 1202 C-407.29629994 1200.85185003 -409.07698086 1200.69230191 -411.625 1200.4375 C-412.85089844 1200.31181641 -412.85089844 1200.31181641 -414.1015625 1200.18359375 C-414.72804688 1200.12300781 -415.35453125 1200.06242187 -416 1200 C-416 1199.01 -416 1198.02 -416 1197 C-419.3 1197 -422.6 1197 -426 1197 C-426 1196.01 -426 1195.02 -426 1194 C-428.64 1193.67 -431.28 1193.34 -434 1193 C-434.495 1191.515 -434.495 1191.515 -435 1190 C-437.31 1189.67 -439.62 1189.34 -442 1189 C-442 1188.34 -442 1187.68 -442 1187 C-442.969375 1186.71125 -443.93875 1186.4225 -444.9375 1186.125 C-448 1185 -448 1185 -449 1183 C-452.02934491 1182.34227572 -452.02934491 1182.34227572 -455 1182 C-455.495 1180.515 -455.495 1180.515 -456 1179 C-457.65 1178.67 -459.3 1178.34 -461 1178 C-461 1177.01 -461 1176.02 -461 1175 C-462.65 1174.67 -464.3 1174.34 -466 1174 C-466 1173.01 -466 1172.02 -466 1171 C-467.2065625 1170.814375 -467.2065625 1170.814375 -468.4375 1170.625 C-469.283125 1170.41875 -470.12875 1170.2125 -471 1170 C-471.33 1169.34 -471.66 1168.68 -472 1168 C-474.52733235 1167.34444881 -474.52733235 1167.34444881 -477 1167 C-477.495 1165.515 -477.495 1165.515 -478 1164 C-480.00016466 1162.79117904 -480.00016466 1162.79117904 -482 1162 C-482 1161.34 -482 1160.68 -482 1160 C-483.32 1159.34 -484.64 1158.68 -486 1158 C-486 1157.01 -486 1156.02 -486 1155 C-486.99 1155 -487.98 1155 -489 1155 C-489.33 1154.34 -489.66 1153.68 -490 1153 C-490.99 1152.67 -491.98 1152.34 -493 1152 C-493 1150.68 -493 1149.36 -493 1148 C-494.32 1148 -495.64 1148 -497 1148 C-497 1146.68 -497 1145.36 -497 1144 C-498.32 1144 -499.64 1144 -501 1144 C-501 1142.68 -501 1141.36 -501 1140 C-501.99 1140 -502.98 1140 -504 1140 C-504.33 1139.34 -504.66 1138.68 -505 1138 C-505.99 1137.67 -506.98 1137.34 -508 1137 C-509.25 1134.5625 -509.25 1134.5625 -510 1132 C-509.67 1131.34 -509.34 1130.68 -509 1130 C-509.99 1130 -510.98 1130 -512 1130 C-512 1128.68 -512 1127.36 -512 1126 C-513.32 1125.67 -514.64 1125.34 -516 1125 C-516 1124.01 -516 1123.02 -516 1122 C-516.99 1122 -517.98 1122 -519 1122 C-520.35439668 1119.29120665 -520.06501451 1116.99066732 -520 1114 C-521.32 1113.67 -522.64 1113.34 -524 1113 C-524 1111.02 -524 1109.04 -524 1107 C-524.99 1107 -525.98 1107 -527 1107 C-527.495 1103.535 -527.495 1103.535 -528 1100 C-528.99 1100 -529.98 1100 -531 1100 C-531.33 1097.36 -531.66 1094.72 -532 1092 C-532.99 1092 -533.98 1092 -535 1092 C-535 1089.36 -535 1086.72 -535 1084 C-536.32 1084 -537.64 1084 -539 1084 C-539 1080.37 -539 1076.74 -539 1073 C-539.99 1073 -540.98 1073 -542 1073 C-543.8987983 1069.20240339 -543.37560725 1064.33866756 -543.51757812 1060.12109375 C-543.53831191 1055.58706955 -543.53831191 1055.58706955 -546 1052 C-546.18845127 1048.92612331 -546.25161751 1045.94295151 -546.22705078 1042.86865234 C-546.22734283 1041.92226395 -546.22763489 1040.97587555 -546.22793579 1040.00080872 C-546.2265388 1036.86242609 -546.21096024 1033.72427882 -546.1953125 1030.5859375 C-546.19158368 1028.4140333 -546.18873609 1026.24212743 -546.18673706 1024.07022095 C-546.17909027 1018.34581888 -546.15943281 1012.62151784 -546.1373291 1006.89715576 C-546.11689317 1001.05905525 -546.10774017 995.22093845 -546.09765625 989.3828125 C-546.0761879 977.92183054 -546.04203937 966.46092366 -546 955 C-546.66 955 -547.32 955 -548 955 C-548 776.8 -548 598.6 -548 415 C-547.34 415 -546.68 415 -546 415 C-546 397.51 -546 380.02 -546 362 C-545.34 362 -544.68 362 -544 362 C-543.98541748 360.86981445 -543.97083496 359.73962891 -543.95581055 358.57519531 C-543.89779315 354.37793501 -543.82056063 350.18120927 -543.73754883 345.984375 C-543.70431564 344.16870811 -543.67627866 342.35293832 -543.65356445 340.53710938 C-543.61998859 337.92533558 -543.56767238 335.31450346 -543.51171875 332.703125 C-543.50213387 331.48728729 -543.50213387 331.48728729 -543.49235535 330.24688721 C-543.37594717 325.77451521 -542.92712561 323.36924354 -540 320 C-539.50591897 317.88877113 -539.50591897 317.88877113 -539.48828125 315.671875 C-539.45283203 314.87265625 -539.41738281 314.0734375 -539.38085938 313.25 C-539.34702148 312.0125 -539.34702148 312.0125 -539.3125 310.75 C-539.27833984 309.90953125 -539.24417969 309.0690625 -539.20898438 308.203125 C-539.12676432 306.13587796 -539.06169843 304.06796126 -539 302 C-537.68 302 -536.36 302 -535 302 C-535 297.05 -535 292.1 -535 287 C-533.68 287 -532.36 287 -531 287 C-531 283.37 -531 279.74 -531 276 C-529.68 275.67 -528.36 275.34 -527 275 C-527.33 273.02 -527.66 271.04 -528 269 C-526.68 268.67 -525.36 268.34 -524 268 C-524 265.03 -524 262.06 -524 259 C-523.01 258.67 -522.02 258.34 -521 258 C-520.67 256.35 -520.34 254.7 -520 253 C-519.01 253 -518.02 253 -517 253 C-516.67 250.36 -516.34 247.72 -516 245 C-514.68 245 -513.36 245 -512 245 C-512.185625 244.401875 -512.37125 243.80375 -512.5625 243.1875 C-513 241 -513 241 -512 238 C-511.01 237.67 -510.02 237.34 -509 237 C-508.67 236.01 -508.34 235.02 -508 234 C-507.01 234 -506.02 234 -505 234 C-505 232.68 -505 231.36 -505 230 C-504.01 229.34 -503.02 228.68 -502 228 C-501.67 227.154375 -501.34 226.30875 -501 225.4375 C-500.505 224.2309375 -500.505 224.2309375 -500 223 C-499.01 222.67 -498.02 222.34 -497 222 C-497 221.01 -497 220.02 -497 219 C-495.68 218.67 -494.36 218.34 -493 218 C-493 217.01 -493 216.02 -493 215 C-492.401875 214.71125 -491.80375 214.4225 -491.1875 214.125 C-488.80672208 212.95257974 -488.80672208 212.95257974 -486 211 C-485.34 211 -484.68 211 -484 211 C-484 210.01 -484 209.02 -484 208 C-483.360625 207.896875 -482.72125 207.79375 -482.0625 207.6875 C-481.0415625 207.3471875 -481.0415625 207.3471875 -480 207 C-479.67 206.01 -479.34 205.02 -479 204 C-477.66666667 203.66666667 -476.33333333 203.33333333 -475 203 C-474.67 202.01 -474.34 201.02 -474 200 C-472.35 200 -470.7 200 -469 200 C-469 199.01 -469 198.02 -469 197 C-467.35 196.67 -465.7 196.34 -464 196 C-463.67 195.01 -463.34 194.02 -463 193 C-461.02 192.67 -459.04 192.34 -457 192 C-456.67 191.01 -456.34 190.02 -456 189 C-453.69 189 -451.38 189 -449 189 C-449 187.68 -449 186.36 -449 185 C-446.03 185 -443.06 185 -440 185 C-440 184.01 -440 183.02 -440 182 C-435.05 181.01 -435.05 181.01 -430 180 C-430 179.34 -430 178.68 -430 178 C-425.38 177.67 -420.76 177.34 -416 177 C-416 176.34 -416 175.68 -416 175 C-416.66 174.67 -417.32 174.34 -418 174 C-411.73 173.67 -405.46 173.34 -399 173 C-399 172.34 -399 171.68 -399 171 C-399.66 170.67 -400.32 170.34 -401 170 C-314.21 170 -227.42 170 -138 170 C-138 165.71 -138 161.42 -138 157 C-137.34 157.33 -136.68 157.66 -136 158 C-135.34 153.71 -134.68 149.42 -134 145 C-132.68 144.67 -131.36 144.34 -130 144 C-130 141.69 -130 139.38 -130 137 C-129.01 137 -128.02 137 -127 137 C-127 133.7 -127 130.4 -127 127 C-126.34 126.67 -125.68 126.34 -125 126 C-123.03177114 124.03177114 -123.33751619 120.65191291 -123 118 C-121.68 118 -120.36 118 -119 118 C-119 115.69 -119 113.38 -119 111 C-117.515 110.505 -117.515 110.505 -116 110 C-115.26676204 107.98491642 -115.26676204 107.98491642 -115 106 C-114.34 106 -113.68 106 -113 106 C-112.67 103.69 -112.34 101.38 -112 99 C-110.68 99 -109.36 99 -108 99 C-108 96.69 -108 94.38 -108 92 C-106.68 92 -105.36 92 -104 92 C-104 90.68 -104 89.36 -104 88 C-103.01 88 -102.02 88 -101 88 C-100.67 85.69 -100.34 83.38 -100 81 C-98.515 80.505 -98.515 80.505 -97 80 C-96.67 79.01 -96.34 78.02 -96 77 C-95.01 77 -94.02 77 -93 77 C-93 75.68 -93 74.36 -93 73 C-91.515 72.505 -91.515 72.505 -90 72 C-89.26676204 69.98491642 -89.26676204 69.98491642 -89 68 C-88.34 68 -87.68 68 -87 68 C-86.731875 67.030625 -86.46375 66.06125 -86.1875 65.0625 C-85.795625 64.051875 -85.40375 63.04125 -85 62 C-83.515 61.505 -83.515 61.505 -82 61 C-81.67 60.01 -81.34 59.02 -81 58 C-79.515 57.505 -79.515 57.505 -78 57 C-77.67 56.01 -77.34 55.02 -77 54 C-75.515 53.505 -75.515 53.505 -74 53 C-72.64613064 51.34997172 -71.31321858 49.6825613 -70 48 C-69.01 47.34 -68.02 46.68 -67 46 C-66.67 45.01 -66.34 44.02 -66 43 C-63.9375 42.3125 -63.9375 42.3125 -62 42 C-62 41.01 -62 40.02 -62 39 C-60.35 39 -58.7 39 -57 39 C-57 38.01 -57 37.02 -57 36 C-55.35 35.67 -53.7 35.34 -52 35 C-52 34.01 -52 33.02 -52 32 C-50.02 31.505 -50.02 31.505 -48 31 C-48 30.01 -48 29.02 -48 28 C-47.360625 27.896875 -46.72125 27.79375 -46.0625 27.6875 C-45.381875 27.460625 -44.70125 27.23375 -44 27 C-43.67 26.01 -43.34 25.02 -43 24 C-41.02 24 -39.04 24 -37 24 C-37 23.01 -37 22.02 -37 21 C-35.35 20.34 -33.7 19.68 -32 19 C-32 18.34 -32 17.68 -32 17 C-29.525 16.505 -29.525 16.505 -27 16 C-26.67 15.01 -26.34 14.02 -26 13 C-24.35 12.67 -22.7 12.34 -21 12 C-20.67 11.01 -20.34 10.02 -20 9 C-17.69 9 -15.38 9 -13 9 C-13 8.01 -13 7.02 -13 6 C-10.69 5.67 -8.38 5.34 -6 5 C-6 4.01 -6 3.02 -6 2 C-4.02 2 -2.04 2 0 2 C0 1.34 0 0.68 0 0 Z M533 231 C533 231.66 533 232.32 533 233 C533.66 232.67 534.32 232.34 535 232 C534.34 231.67 533.68 231.34 533 231 Z M532 234 C532 261.06 532 288.12 532 316 C535.13545856 317.56772928 538.48041197 317.13836428 541.92211914 317.12939453 C542.74010483 317.13114685 543.55809052 317.13289917 544.40086365 317.13470459 C547.11231591 317.13911614 549.82370329 317.13618783 552.53515625 317.1328125 C554.41320305 317.13348567 556.29124976 317.13445581 558.16929626 317.13571167 C562.10774565 317.13718764 566.04617238 317.13503705 569.98461914 317.13037109 C575.04468873 317.12466995 580.10470533 317.12795589 585.16477299 317.13394356 C589.04308983 317.13754853 592.92139401 317.13641095 596.79971123 317.13381577 C598.66612186 317.13314652 600.53253363 317.13397483 602.39894295 317.13629532 C605.00175166 317.13882123 607.60447321 317.13498232 610.20727539 317.12939453 C610.98600006 317.13141876 611.76472473 317.13344299 612.56704712 317.13552856 C616.07603851 317.44371237 616.07603851 317.44371237 619 316 C619.09506198 313.44406185 619.12555454 310.91535694 619.11352539 308.35913086 C619.11370619 307.13975122 619.11370619 307.13975122 619.11389065 305.89573765 C619.11314147 303.25207896 619.10551303 300.6084899 619.09765625 297.96484375 C619.09618685 296.33760614 619.09516613 294.71036806 619.09460449 293.08312988 C619.08935143 287.0345794 619.07539035 280.98603903 619.0625 274.9375 C619.0315625 254.6734375 619.0315625 254.6734375 619 234 C590.29 234 561.58 234 532 234 Z M99 259 C96.29199219 259.30297852 96.29199219 259.30297852 93.046875 259.37890625 C91.86996094 259.41306641 90.69304687 259.44722656 89.48046875 259.48242188 C88.24941406 259.50884766 87.01835938 259.53527344 85.75 259.5625 C75.30888799 259.6179555 75.30888799 259.6179555 65 261 C64.67 261.66 64.34 262.32 64 263 C61.28553021 263.31241455 58.66090639 263.51336592 55.9375 263.625 C55.17888672 263.66367187 54.42027344 263.70234375 53.63867188 263.7421875 C51.75952805 263.83673562 49.87979664 263.91946756 48 264 C47.67 264.99 47.34 265.98 47 267 C38.585 267.495 38.585 267.495 30 268 C29.67 268.99 29.34 269.98 29 271 C28.33613281 270.97679687 27.67226563 270.95359375 26.98828125 270.9296875 C20.27138984 270.76375695 20.27138984 270.76375695 14 273 C14 273.33 14 273.66 14 274 C13.30132813 274.03738281 12.60265625 274.07476563 11.8828125 274.11328125 C10.51769531 274.21189453 10.51769531 274.21189453 9.125 274.3125 C8.22007812 274.37050781 7.31515625 274.42851563 6.3828125 274.48828125 C3.63778399 274.7882039 3.63778399 274.7882039 2 278 C-0.09375 278.4765625 -0.09375 278.4765625 -2.5 278.625 C-5.87761268 278.82462241 -5.87761268 278.82462241 -9 280 C-9 280.66 -9 281.32 -9 282 C-9.95712891 282.07347656 -9.95712891 282.07347656 -10.93359375 282.1484375 C-11.75988281 282.22320313 -12.58617187 282.29796875 -13.4375 282.375 C-14.26121094 282.44460938 -15.08492187 282.51421875 -15.93359375 282.5859375 C-16.61550781 282.72257812 -17.29742188 282.85921875 -18 283 C-18.33 283.66 -18.66 284.32 -19 285 C-21.06640625 285.6328125 -21.06640625 285.6328125 -23.5625 286.125 C-24.38878906 286.29257812 -25.21507812 286.46015625 -26.06640625 286.6328125 C-26.70449219 286.75398438 -27.34257813 286.87515625 -28 287 C-28 287.99 -28 288.98 -28 290 C-29.11375 289.979375 -30.2275 289.95875 -31.375 289.9375 C-34.83215921 289.73619282 -34.83215921 289.73619282 -37 291 C-37 291.66 -37 292.32 -37 293 C-40.465 293.495 -40.465 293.495 -44 294 C-44.33 294.99 -44.66 295.98 -45 297 C-48.465 297.495 -48.465 297.495 -52 298 C-52.33 298.99 -52.66 299.98 -53 301 C-56.465 301.495 -56.465 301.495 -60 302 C-60 302.99 -60 303.98 -60 305 C-61.98 305 -63.96 305 -66 305 C-66.33 306.32 -66.66 307.64 -67 309 C-68.65 309 -70.3 309 -72 309 C-72.33 309.99 -72.66 310.98 -73 312 C-76.5625 313.1875 -76.5625 313.1875 -80 314 C-80 314.66 -80 315.32 -80 316 C-80.9075 316.28875 -81.815 316.5775 -82.75 316.875 C-86.53462865 318.12537631 -86.53462865 318.12537631 -90 320 C-90.80528889 322.05000871 -90.80528889 322.05000871 -91 324 C-92.65 324 -94.3 324 -96 324 C-96.33 324.99 -96.66 325.98 -97 327 C-99.475 327.495 -99.475 327.495 -102 328 C-102 328.99 -102 329.98 -102 331 C-104.475 331.495 -104.475 331.495 -107 332 C-107 332.99 -107 333.98 -107 335 C-108.65 335 -110.3 335 -112 335 C-112.33 335.99 -112.66 336.98 -113 338 C-115.0625 339.1875 -115.0625 339.1875 -117 340 C-117 340.66 -117 341.32 -117 342 C-119.475 342.99 -119.475 342.99 -122 344 C-122 344.66 -122 345.32 -122 346 C-124.475 346.495 -124.475 346.495 -127 347 C-127 347.99 -127 348.98 -127 350 C-128.32 350 -129.64 350 -131 350 C-131 351.32 -131 352.64 -131 354 C-132.32 354 -133.64 354 -135 354 C-135 355.32 -135 356.64 -135 358 C-136.32 358 -137.64 358 -139 358 C-139 358.99 -139 359.98 -139 361 C-140.32 361.33 -141.64 361.66 -143 362 C-143 362.99 -143 363.98 -143 365 C-144.32 365.33 -145.64 365.66 -147 366 C-147 366.99 -147 367.98 -147 369 C-148.32 369.33 -149.64 369.66 -151 370 C-151 370.99 -151 371.98 -151 373 C-152.32 373.33 -153.64 373.66 -155 374 C-155 374.66 -155 375.32 -155 376 C-156.485 376.495 -156.485 376.495 -158 377 C-158 377.99 -158 378.98 -158 380 C-159.32 380.33 -160.64 380.66 -162 381 C-162 381.66 -162 382.32 -162 383 C-163.485 383.495 -163.485 383.495 -165 384 C-165 385.32 -165 386.64 -165 388 C-166.32 388 -167.64 388 -169 388 C-169 388.99 -169 389.98 -169 391 C-169.99 391 -170.98 391 -172 391 C-172 392.32 -172 393.64 -172 395 C-173.32 395.33 -174.64 395.66 -176 396 C-176 396.99 -176 397.98 -176 399 C-176.99 399 -177.98 399 -179 399 C-179.103125 399.598125 -179.20625 400.19625 -179.3125 400.8125 C-180.09911856 403.31537724 -181.13545831 404.21314755 -183 406 C-183.33 406.99 -183.66 407.98 -184 409 C-184.99 409.33 -185.98 409.66 -187 410 C-187 411.32 -187 412.64 -187 414 C-188.32 414 -189.64 414 -191 414 C-191 414.99 -191 415.98 -191 417 C-191.474375 417.45375 -191.94875 417.9075 -192.4375 418.375 C-194.44583349 420.46366683 -194.61869524 422.1783448 -195 425 C-195.99 425 -196.98 425 -198 425 C-198.33 425.99 -198.66 426.98 -199 428 C-199.99 428.33 -200.98 428.66 -202 429 C-202 431.31 -202 433.62 -202 436 C-203.32 436 -204.64 436 -206 436 C-206 437.32 -206 438.64 -206 440 C-206.99 440 -207.98 440 -209 440 C-209.28875 441.134375 -209.5775 442.26875 -209.875 443.4375 C-210.24625 444.613125 -210.6175 445.78875 -211 447 C-211.66 447.33 -212.32 447.66 -213 448 C-213.70151152 449.3153341 -214.36525925 450.65117592 -215 452 C-215.66 452.99 -216.32 453.98 -217 455 C-217 456.32 -217 457.64 -217 459 C-217.99 459 -218.98 459 -220 459 C-220.33 461.31 -220.66 463.62 -221 466 C-221.99 466 -222.98 466 -224 466 C-224.33 468.31 -224.66 470.62 -225 473 C-225.99 473.33 -226.98 473.66 -228 474 C-228 476.31 -228 478.62 -228 481 C-228.99 481 -229.98 481 -231 481 C-231.82638376 483.89234315 -232 485.88742431 -232 489 C-232.99 489 -233.98 489 -235 489 C-235.16802051 490.45817797 -235.33437143 491.9165484 -235.5 493.375 C-235.63921875 494.59316406 -235.63921875 494.59316406 -235.78125 495.8359375 C-236.03352351 497.96912825 -236.03352351 497.96912825 -236 500 C-236.99 500 -237.98 500 -239 500 C-239.33 502.31 -239.66 504.62 -240 507 C-240.66 507 -241.32 507 -242 507 C-242.99 512.445 -242.99 512.445 -244 518 C-244.99 518.33 -245.98 518.66 -247 519 C-247 522.63 -247 526.26 -247 530 C-248.32 530 -249.64 530 -251 530 C-251 533.63 -251 537.26 -251 541 C-251.66 541 -252.32 541 -253 541 C-254.00109515 544.31070838 -254.10356134 547.30084769 -254.0625 550.75 C-254.05347656 551.73484375 -254.04445313 552.7196875 -254.03515625 553.734375 C-254.02355469 554.48203125 -254.01195312 555.2296875 -254 556 C-255.32 556 -256.64 556 -258 556 C-258 561.94 -258 567.88 -258 574 C-259.32 574.33 -260.64 574.66 -262 575 C-262.33 579.95 -262.66 584.9 -263 590 C-263.33 590 -263.66 590 -264 590 C-265.14827652 595.48674432 -265.1410564 600.81578573 -265.12939453 606.39233398 C-265.13114685 607.42559814 -265.13289917 608.4588623 -265.13470459 609.5234375 C-265.13909727 612.93100679 -265.13619396 616.33852395 -265.1328125 619.74609375 C-265.13348633 622.11971547 -265.13445702 624.49333713 -265.13571167 626.86695862 C-265.13718519 631.83912819 -265.13504536 636.81127978 -265.13037109 641.78344727 C-265.12467714 648.14989626 -265.12795291 654.51630307 -265.13394356 660.88275051 C-265.13756114 665.78384213 -265.13640501 670.68492378 -265.13381577 675.5860157 C-265.13314965 677.93311633 -265.13396389 680.28021787 -265.13629532 682.62731743 C-265.1388411 685.91099306 -265.1349539 689.19460088 -265.12939453 692.47827148 C-265.13141876 693.44420731 -265.13344299 694.41014313 -265.13552856 695.40534973 C-265.11996754 700.37893179 -264.84850272 705.09714502 -264 710 C-263.34 710 -262.68 710 -262 710 C-262.02320313 711.03640625 -262.04640625 712.0728125 -262.0703125 713.140625 C-262.08907667 714.51040944 -262.10727618 715.8802017 -262.125 717.25 C-262.14175781 717.93191406 -262.15851563 718.61382813 -262.17578125 719.31640625 C-262.21213482 723.0608235 -262.07944349 725.82352727 -260 729 C-259.67 729 -259.34 729 -259 729 C-258.96261719 730.04800781 -258.92523437 731.09601563 -258.88671875 732.17578125 C-258.82105485 733.55472305 -258.75460765 734.93362771 -258.6875 736.3125 C-258.66494141 737.00279297 -258.64238281 737.69308594 -258.61914062 738.40429688 C-258.49513731 742.38121452 -258.49513731 742.38121452 -256.49609375 745.6640625 C-256.00238281 746.10492187 -255.50867188 746.54578125 -255 747 C-254.5234375 749.41015625 -254.5234375 749.41015625 -254.375 752.0625 C-254.2082143 755.66869449 -254.2082143 755.66869449 -253 759 C-252.34 759 -251.68 759 -251 759 C-251 762.3 -251 765.6 -251 769 C-249.68 769.33 -248.36 769.66 -247 770 C-247 773.63 -247 777.26 -247 781 C-246.34 781 -245.68 781 -245 781 C-244.34 784.63 -243.68 788.26 -243 792 C-241.68 792 -240.36 792 -239 792 C-239 795.3 -239 798.6 -239 802 C-237.68 802.33 -236.36 802.66 -235 803 C-235.33 803.99 -235.66 804.98 -236 806 C-235.60602665 808.63804589 -235.60602665 808.63804589 -235 811 C-234.01 811 -233.02 811 -232 811 C-232 813.31 -232 815.62 -232 818 C-231.01 818.33 -230.02 818.66 -229 819 C-228.67 821.31 -228.34 823.62 -228 826 C-226.68 826 -225.36 826 -224 826 C-224 828.31 -224 830.62 -224 833 C-223.01 833 -222.02 833 -221 833 C-221 835.31 -221 837.62 -221 840 C-219.68 840.33 -218.36 840.66 -217 841 C-217 842.98 -217 844.96 -217 847 C-215.68 847.33 -214.36 847.66 -213 848 C-212.814375 849.4540625 -212.814375 849.4540625 -212.625 850.9375 C-212.41875 851.948125 -212.2125 852.95875 -212 854 C-211.34 854.33 -210.68 854.66 -210 855 C-209.375 857.5625 -209.375 857.5625 -209 860 C-208.01 860 -207.02 860 -206 860 C-205.814375 861.4540625 -205.814375 861.4540625 -205.625 862.9375 C-205.41875 863.948125 -205.2125 864.95875 -205 866 C-204.34 866.33 -203.68 866.66 -203 867 C-202.375 869.0625 -202.375 869.0625 -202 871 C-200.68 871 -199.36 871 -198 871 C-197.505 873.97 -197.505 873.97 -197 877 C-196.01 877.33 -195.02 877.66 -194 878 C-194 879.32 -194 880.64 -194 882 C-193.01 882 -192.02 882 -191 882 C-191 883.32 -191 884.64 -191 886 C-189.68 886 -188.36 886 -187 886 C-187 887.32 -187 888.64 -187 890 C-186.01 890 -185.02 890 -184 890 C-183.67 892.31 -183.34 894.62 -183 897 C-182.01 897.33 -181.02 897.66 -180 898 C-179.505 899.485 -179.505 899.485 -179 901 C-178.01 901 -177.02 901 -176 901 C-176 902.32 -176 903.64 -176 905 C-173.38058783 906.74627478 -171.96175123 907.38722388 -169 908 C-168.896875 908.5775 -168.79375 909.155 -168.6875 909.75 C-167.89103535 912.35661158 -166.80934723 913.9735311 -165 916 C-164.34 916 -163.68 916 -163 916 C-163 916.99 -163 917.98 -163 919 C-162.34 919.33 -161.68 919.66 -161 920 C-160.505 921.485 -160.505 921.485 -160 923 C-159.01 923.33 -158.02 923.66 -157 924 C-156.505 925.485 -156.505 925.485 -156 927 C-155.01 927 -154.02 927 -153 927 C-152.67 928.32 -152.34 929.64 -152 931 C-151.01 931 -150.02 931 -149 931 C-149 931.99 -149 932.98 -149 934 C-148.01 934.33 -147.02 934.66 -146 935 C-145.505 936.485 -145.505 936.485 -145 938 C-144.34 938.165 -143.68 938.33 -143 938.5 C-142.34 938.665 -141.68 938.83 -141 939 C-140.505 940.485 -140.505 940.485 -140 942 C-138.68 942 -137.36 942 -136 942 C-135.67 943.32 -135.34 944.64 -135 946 C-134.01 946 -133.02 946 -132 946 C-132 946.99 -132 947.98 -132 949 C-131.01 949.33 -130.02 949.66 -129 950 C-128.01 951.485 -128.01 951.485 -127 953 C-125.68 953 -124.36 953 -123 953 C-123 954.32 -123 955.64 -123 957 C-122.401875 957.28875 -121.80375 957.5775 -121.1875 957.875 C-119 959 -119 959 -116 961 C-115.01 961 -114.02 961 -113 961 C-113 961.99 -113 962.98 -113 964 C-112.01 964.33 -111.02 964.66 -110 965 C-109.01 966.485 -109.01 966.485 -108 968 C-105.41619823 968.25030977 -105.41619823 968.25030977 -103 968 C-102.67 969.32 -102.34 970.64 -102 972 C-100.68 972 -99.36 972 -98 972 C-97.67 973.32 -97.34 974.64 -97 976 C-95.68 976 -94.36 976 -93 976 C-93 976.99 -93 977.98 -93 979 C-91.02 979 -89.04 979 -87 979 C-87 980.32 -87 981.64 -87 983 C-85.02 983.33 -83.04 983.66 -81 984 C-80.67 984.99 -80.34 985.98 -80 987 C-78.35 987 -76.7 987 -75 987 C-74.67 988.32 -74.34 989.64 -74 991 C-73.195625 991.12375 -72.39125 991.2475 -71.5625 991.375 C-70.716875 991.58125 -69.87125 991.7875 -69 992 C-68.67 992.66 -68.34 993.32 -68 994 C-66.02 994 -64.04 994 -62 994 C-61.67 995.32 -61.34 996.64 -61 998 C-59.576875 998.1546875 -59.576875 998.1546875 -58.125 998.3125 C-55 999 -55 999 -53 1002 C-49.91634129 1002.2502157 -49.91634129 1002.2502157 -47 1002 C-47 1002.99 -47 1003.98 -47 1005 C-44.29120665 1006.35439668 -41.99066732 1006.06501451 -39 1006 C-38.67 1006.99 -38.34 1007.98 -38 1009 C-35.36 1009 -32.72 1009 -30 1009 C-29.67 1010.32 -29.34 1011.64 -29 1013 C-26.36 1013.33 -23.72 1013.66 -21 1014 C-20.67 1014.99 -20.34 1015.98 -20 1017 C-17.03 1017 -14.06 1017 -11 1017 C-11 1017.99 -11 1018.98 -11 1020 C-8.10655794 1021.44672103 -5.19460336 1021.38056583 -1.99609375 1021.62109375 C-1.33738281 1021.74613281 -0.67867187 1021.87117188 0 1022 C0.33 1022.66 0.66 1023.32 1 1024 C3.35599235 1024.46751788 3.35599235 1024.46751788 6.0625 1024.625 C6.98160156 1024.69976563 7.90070313 1024.77453125 8.84765625 1024.8515625 C9.55792969 1024.90054688 10.26820313 1024.94953125 11 1025 C11.33 1025.99 11.66 1026.98 12 1028 C16.29 1028.33 20.58 1028.66 25 1029 C25.33 1029.99 25.66 1030.98 26 1032 C27.68029297 1032.05607422 27.68029297 1032.05607422 29.39453125 1032.11328125 C30.8672209 1032.17894257 32.33987566 1032.24538986 33.8125 1032.3125 C34.55048828 1032.33505859 35.28847656 1032.35761719 36.04882812 1032.38085938 C40.33676697 1032.5942862 42.0923003 1032.97345699 45 1036 C48.39124356 1036.50725445 48.39124356 1036.50725445 52.125 1036.5625 C54.41999602 1036.63993852 56.71532656 1036.76919539 59 1037 C59.33 1037.66 59.66 1038.32 60 1039 C70.89 1039.33 81.78 1039.66 93 1040 C93 1040.66 93 1041.32 93 1042 C95.67100283 1043.33550141 97.71231224 1043.12714001 100.703125 1043.12939453 C101.89776367 1043.13254669 103.09240234 1043.13569885 104.32324219 1043.13894653 C105.61907227 1043.1369223 106.91490234 1043.13489807 108.25 1043.1328125 C109.58756528 1043.13348589 110.92513045 1043.13445621 112.26269531 1043.13571167 C115.06706913 1043.13718698 117.87141112 1043.13503943 120.67578125 1043.13037109 C124.2739719 1043.12467389 127.87208797 1043.12795378 131.47027588 1043.13394356 C134.23259037 1043.13755366 136.99488713 1043.13640851 139.75720215 1043.13381577 C141.73038786 1043.13282237 143.70357426 1043.1358642 145.67675781 1043.13894653 C146.87139648 1043.13579437 148.06603516 1043.13264221 149.296875 1043.12939453 C150.35229492 1043.12859894 151.40771484 1043.12780334 152.49511719 1043.12698364 C154.99831465 1043.16807422 154.99831465 1043.16807422 157 1042 C157 1041.34 157 1040.68 157 1040 C167.89 1039.67 178.78 1039.34 190 1039 C190.33 1038.34 190.66 1037.68 191 1037 C193.80078125 1036.65625 193.80078125 1036.65625 197.3125 1036.5 C201.40536778 1036.31666886 204.46760616 1036.1630461 208 1034 C208 1033.67 208 1033.34 208 1033 C212.95 1032.67 217.9 1032.34 223 1032 C223.33 1031.01 223.66 1030.02 224 1029 C224.84304688 1028.93941406 225.68609375 1028.87882812 226.5546875 1028.81640625 C227.65039062 1028.73261719 228.74609375 1028.64882812 229.875 1028.5625 C230.96554687 1028.48128906 232.05609375 1028.40007813 233.1796875 1028.31640625 C235.94728971 1028.16998297 235.94728971 1028.16998297 238 1027 C238 1026.34 238 1025.68 238 1025 C238.78246094 1024.95101562 239.56492187 1024.90203125 240.37109375 1024.8515625 C241.38300781 1024.77679687 242.39492187 1024.70203125 243.4375 1024.625 C244.44683594 1024.55539062 245.45617188 1024.48578125 246.49609375 1024.4140625 C247.32238281 1024.27742188 248.14867187 1024.14078125 249 1024 C249.33 1023.34 249.66 1022.68 250 1022 C251.99609375 1021.62109375 251.99609375 1021.62109375 254.4375 1021.4375 C257.84628205 1021.1938825 257.84628205 1021.1938825 261 1020 C261 1019.34 261 1018.68 261 1018 C263.01822917 1017.83723958 265.03645833 1017.67447917 267.0546875 1017.51171875 C269.39519216 1017.12606964 269.39519216 1017.12606964 271 1014 C272.9453125 1013.48828125 272.9453125 1013.48828125 275.125 1013.3125 C277.043125 1013.1578125 277.043125 1013.1578125 279 1013 C279.33 1012.01 279.66 1011.02 280 1010 C283.07617188 1009.70703125 283.07617188 1009.70703125 286.15234375 1009.4140625 C286.76207031 1009.27742188 287.37179687 1009.14078125 288 1009 C288.33 1008.34 288.66 1007.68 289 1007 C291.33333333 1006.33333333 293.66666667 1005.66666667 296 1005 C296.33 1004.34 296.66 1003.68 297 1003 C299.3140622 1002.26924352 301.64828869 1001.59861742 304 1001 C304 1000.34 304 999.68 304 999 C306.31 998.67 308.62 998.34 311 998 C311.33 997.01 311.66 996.02 312 995 C313.98 994.67 315.96 994.34 318 994 C318 993.01 318 992.02 318 991 C318.78375 991.061875 319.5675 991.12375 320.375 991.1875 C321.24125 991.125625 322.1075 991.06375 323 991 C323.66 990.01 324.32 989.02 325 988 C328.125 986.8125 328.125 986.8125 331 986 C331 985.34 331 984.68 331 984 C332.98 983.34 334.96 982.68 337 982 C337 981.01 337 980.02 337 979 C338.65 979 340.3 979 342 979 C342 978.01 342 977.02 342 976 C342.804375 975.87625 343.60875 975.7525 344.4375 975.625 C345.283125 975.41875 346.12875 975.2125 347 975 C347.33 974.34 347.66 973.68 348 973 C349.64363134 972.27840576 351.31050386 971.60648579 353 971 C353 970.01 353 969.02 353 968 C354.65 967.67 356.3 967.34 358 967 C358 966.34 358 965.68 358 965 C359.65 964.67 361.3 964.34 363 964 C363 963.01 363 962.02 363 961 C364.65 960.67 366.3 960.34 368 960 C368 959.01 368 958.02 368 957 C369.65 956.67 371.3 956.34 373 956 C373 955.34 373 954.68 373 954 C373.639375 953.71125 374.27875 953.4225 374.9375 953.125 C377.15206079 952.17176549 377.15206079 952.17176549 378 950 C380.0625 948.875 380.0625 948.875 382 948 C382 947.34 382 946.68 382 946 C383.32 946 384.64 946 386 946 C386 944.68 386 943.36 386 942 C387.65 941.67 389.3 941.34 391 941 C391 940.34 391 939.68 391 939 C392.32 938.34 393.64 937.68 395 937 C395 936.34 395 935.68 395 935 C395.99 935 396.98 935 398 935 C398.33 934.01 398.66 933.02 399 932 C399.99 931.67 400.98 931.34 402 931 C402 929.68 402 928.36 402 927 C403.32 927 404.64 927 406 927 C406 925.68 406 924.36 406 923 C407.32 922.67 408.64 922.34 410 922 C410 921.34 410 920.68 410 920 C410.99 919.67 411.98 919.34 413 919 C413 918.01 413 917.02 413 916 C414.32 915.67 415.64 915.34 417 915 C417 914.34 417 913.68 417 913 C417.99 912.67 418.98 912.34 420 912 C420 910.68 420 909.36 420 908 C420.99 908 421.98 908 423 908 C424.4606285 905.35261084 425 904.10551666 425 901 C425.99 901 426.98 901 428 901 C428 899.68 428 898.36 428 897 C429.32 897 430.64 897 432 897 C432 895.68 432 894.36 432 893 C432.99 893 433.98 893 435 893 C435 891.68 435 890.36 435 889 C435.99 889 436.98 889 438 889 C438.268125 888.030625 438.53625 887.06125 438.8125 886.0625 C439.4003125 884.5465625 439.4003125 884.5465625 440 883 C440.99 882.67 441.98 882.34 443 882 C443 880.68 443 879.36 443 878 C444.32 878 445.64 878 447 878 C447 876.68 447 875.36 447 874 C448.31266518 872.64631404 449.64567325 871.31200404 451 870 C451 869.01 451 868.02 451 867 C451.99 867 452.98 867 454 867 C454.28875 866.401875 454.5775 865.80375 454.875 865.1875 C456 863 456 863 458 860 C458 858.68 458 857.36 458 856 C459.32 855.67 460.64 855.34 462 855 C462.12375 854.030625 462.2475 853.06125 462.375 852.0625 C462.58125 851.051875 462.7875 850.04125 463 849 C463.66 848.67 464.32 848.34 465 848 C465 846.68 465 845.36 465 844 C465.99 844 466.98 844 468 844 C468.33 841.69 468.66 839.38 469 837 C469.99 837 470.98 837 472 837 C472.33 834.69 472.66 832.38 473 830 C473.99 830 474.98 830 476 830 C476 827.36 476 824.72 476 822 C477.32 822 478.64 822 480 822 C480 819.36 480 816.72 480 814 C480.99 814 481.98 814 483 814 C484.1577506 810.52674819 484.06866652 807.63932552 484 804 C485.32 803.67 486.64 803.34 488 803 C488 800.69 488 798.38 488 796 C488.99 796 489.98 796 491 796 C491 792.37 491 788.74 491 785 C492.32 785 493.64 785 495 785 C495.06058594 784.37351562 495.12117188 783.74703125 495.18359375 783.1015625 C495.26738281 782.28429688 495.35117188 781.46703125 495.4375 780.625 C495.51871094 779.81289062 495.59992187 779.00078125 495.68359375 778.1640625 C496 776 496 776 497 774 C497.66 774 498.32 774 499 774 C499 770.04 499 766.08 499 762 C500.32 762 501.64 762 503 762 C503 757.38 503 752.76 503 748 C503.99 747.67 504.98 747.34 506 747 C506.33 743.37 506.66 739.74 507 736 C507.99 735.67 508.98 735.34 510 735 C510 728.07 510 721.14 510 714 C511.32 714 512.64 714 514 714 C514.02335546 697.90149298 514.04099221 681.80299145 514.05181217 665.70447159 C514.05696949 658.22973311 514.06400148 650.75500516 514.07543945 643.28027344 C514.08540348 636.76566236 514.09185753 630.25105891 514.09408849 623.73644042 C514.09539267 620.2866889 514.09846007 616.83695919 514.10573006 613.38721466 C514.11377803 609.53711029 514.11399002 605.68702729 514.11352539 601.83691406 C514.11712067 600.69180359 514.12071594 599.54669312 514.12442017 598.36688232 C514.1230455 597.31802856 514.12167084 596.2691748 514.12025452 595.1885376 C514.12117631 594.27780613 514.1220981 593.36707466 514.12304783 592.42874527 C514.00732775 590.14463674 513.64307713 588.18812122 513 586 C512.01 586 511.02 586 510 586 C510.00523682 585.44014404 510.01047363 584.88028809 510.01586914 584.3034668 C510.03666691 581.76482263 510.04966904 579.22619641 510.0625 576.6875 C510.07087891 575.80642578 510.07925781 574.92535156 510.08789062 574.01757812 C510.09111328 573.17001953 510.09433594 572.32246094 510.09765625 571.44921875 C510.10289307 570.66893311 510.10812988 569.88864746 510.11352539 569.0847168 C510.08137863 566.8038445 510.08137863 566.8038445 509 564 C508.34 564 507.68 564 507 564 C506.67 560.04 506.34 556.08 506 552 C505.01 552 504.02 552 503 552 C503 547.38 503 542.76 503 538 C501.68 537.67 500.36 537.34 499 537 C499 533.7 499 530.4 499 527 C497.68 526.67 496.36 526.34 495 526 C495 522.37 495 518.74 495 515 C493.68 515 492.36 515 491 515 C491 511.7 491 508.4 491 505 C490.01 504.67 489.02 504.34 488 504 C488 501.69 488 499.38 488 497 C486.68 496.67 485.36 496.34 484 496 C484 493.69 484 491.38 484 489 C483.01 488.67 482.02 488.34 481 488 C480.34 484.7 479.68 481.4 479 478 C478.34 478 477.68 478 477 478 C476.67 475.69 476.34 473.38 476 471 C475.01 470.67 474.02 470.34 473 470 C472.87625 469.030625 472.7525 468.06125 472.625 467.0625 C472.41875 466.051875 472.2125 465.04125 472 464 C471.34 463.67 470.68 463.34 470 463 C469.855625 462.34 469.71125 461.68 469.5625 461 C469.376875 460.34 469.19125 459.68 469 459 C468.01 458.67 467.02 458.34 466 458 C465.67 455.69 465.34 453.38 465 451 C464.01 451 463.02 451 462 451 C461.67 448.69 461.34 446.38 461 444 C460.01 444 459.02 444 458 444 C458 442.68 458 441.36 458 440 C456.68 440 455.36 440 454 440 C454 437.69 454 435.38 454 433 C453.01 433 452.02 433 451 433 C450.67 431.68 450.34 430.36 450 429 C449.01 429 448.02 429 447 429 C446.67 426.69 446.34 424.38 446 422 C445.01 421.67 444.02 421.34 443 421 C443 420.01 443 419.02 443 418 C442.01 417.67 441.02 417.34 440 417 C439.67 416.01 439.34 415.02 439 414 C438.34 413.34 437.68 412.68 437 412 C435 410 435 410 434 407 C433.34 406.67 432.68 406.34 432 406 C432 405.01 432 404.02 432 403 C430.68 403 429.36 403 428 403 C428 401.68 428 400.36 428 399 C427.01 398.67 426.02 398.34 425 398 C424.67 397.01 424.34 396.02 424 395 C423.01 395 422.02 395 421 395 C420.87625 394.401875 420.7525 393.80375 420.625 393.1875 C420.04524015 390.73768652 420.04524015 390.73768652 418 388 C417.34 388 416.68 388 416 388 C415.814375 387.071875 415.814375 387.071875 415.625 386.125 C415.12802644 383.80879168 415.12802644 383.80879168 413 382 C412.67 381.34 412.34 380.68 412 380 C411.01 380 410.02 380 409 380 C408.67 378.68 408.34 377.36 408 376 C407.34 376 406.68 376 406 376 C405.67 375.01 405.34 374.02 405 373 C404.01 372.67 403.02 372.34 402 372 C401.67 371.01 401.34 370.02 401 369 C400.01 368.67 399.02 368.34 398 368 C397.67 367.01 397.34 366.02 397 365 C396.01 364.67 395.02 364.34 394 364 C394 363.34 394 362.68 394 362 C393.0409375 361.566875 393.0409375 361.566875 392.0625 361.125 C390 360 390 360 389 358 C388.34 357.855625 387.68 357.71125 387 357.5625 C386.34 357.376875 385.68 357.19125 385 357 C384.67 356.01 384.34 355.02 384 354 C382.68 354 381.36 354 380 354 C379.67 352.68 379.34 351.36 379 350 C378.01 350 377.02 350 376 350 C375.67 348.68 375.34 347.36 375 346 C374.01 346 373.02 346 372 346 C371.67 345.01 371.34 344.02 371 343 C368.98491642 342.26676204 368.98491642 342.26676204 367 342 C367 341.34 367 340.68 367 340 C366.195625 339.731875 365.39125 339.46375 364.5625 339.1875 C363.716875 338.795625 362.87125 338.40375 362 338 C361.67 337.01 361.34 336.02 361 335 C359.68 335 358.36 335 357 335 C356.67 333.68 356.34 332.36 356 331 C354.68 331 353.36 331 352 331 C351.67 330.01 351.34 329.02 351 328 C349.35 328 347.7 328 346 328 C346 326.68 346 325.36 346 324 C343.525 323.505 343.525 323.505 341 323 C341 322.34 341 321.68 341 321 C339.02 320.67 337.04 320.34 335 320 C334.67 318.68 334.34 317.36 334 316 C332.35 316 330.7 316 329 316 C329 315.01 329 314.02 329 313 C327.02 313 325.04 313 323 313 C322.67 311.68 322.34 310.36 322 309 C319.525 308.505 319.525 308.505 317 308 C316.67 307.01 316.34 306.02 316 305 C315.05125 304.896875 314.1025 304.79375 313.125 304.6875 C310 304 310 304 308 301 C304.91634129 300.7497843 304.91634129 300.7497843 302 301 C302 300.01 302 299.02 302 298 C299.69 297.67 297.38 297.34 295 297 C294.67 296.01 294.34 295.02 294 294 C291.36 294 288.72 294 286 294 C285.67 292.68 285.34 291.36 285 290 C283.2984375 289.814375 283.2984375 289.814375 281.5625 289.625 C280.386875 289.41875 279.21125 289.2125 278 289 C277.67 288.34 277.34 287.68 277 287 C275.17696338 286.38833807 275.17696338 286.38833807 273.0625 286 C270.09189285 285.39617423 269.21308826 285.21308826 267 283 C264.34462628 282.43479997 261.70855287 282.26211802 259 282 C259 281.34 259 280.68 259 280 C256.56612247 278.78306124 254.58161154 278.68040104 251.875 278.4375 C250.96492188 278.35371094 250.05484375 278.26992188 249.1171875 278.18359375 C248.41851563 278.12300781 247.71984375 278.06242187 247 278 C247 277.34 247 276.68 247 276 C244.10655794 274.55327897 241.19460336 274.61943417 237.99609375 274.37890625 C237.33738281 274.25386719 236.67867187 274.12882812 236 274 C235.67 273.34 235.34 272.68 235 272 C230.31604754 270.85757257 225.78644729 270.91747505 221 271 C220.67 270.01 220.34 269.02 220 268 C214.06 267.67 208.12 267.34 202 267 C201.67 266.01 201.34 265.02 201 264 C199.85660156 263.95101563 198.71320313 263.90203125 197.53515625 263.8515625 C196.04424527 263.77654811 194.55336108 263.70099972 193.0625 263.625 C192.30775391 263.5940625 191.55300781 263.563125 190.77539062 263.53125 C188.84492605 263.4273685 186.92057919 263.22104386 185 263 C184.67 262.34 184.34 261.68 184 261 C180.49221872 259.69172071 176.85690425 259.82675631 173.15234375 259.75390625 C171.81184191 259.72098875 170.47134728 259.68777677 169.13085938 259.65429688 C167.02861124 259.60679261 164.92639658 259.5622935 162.82397461 259.52319336 C160.78730653 259.48349176 158.75120131 259.43197202 156.71484375 259.37890625 C155.49917725 259.3538501 154.28351074 259.32879395 153.03100586 259.30297852 C150 259 150 259 147 257 C144.90234623 256.69804285 144.90234623 256.69804285 142.57617188 256.74121094 C141.68514771 256.73490662 140.79412354 256.72860229 139.87609863 256.72210693 C138.91667358 256.7261554 137.95724854 256.73020386 136.96875 256.734375 C135.98128784 256.73246155 134.99382568 256.7305481 133.97644043 256.72857666 C131.88842514 256.7272155 129.80040138 256.7309071 127.71240234 256.73925781 C124.51250233 256.74995819 121.31316376 256.73936006 118.11328125 256.7265625 C116.08593626 256.72788411 114.05859162 256.73044652 112.03125 256.734375 C110.59211243 256.72830231 110.59211243 256.72830231 109.12390137 256.72210693 C107.78736511 256.73156342 107.78736511 256.73156342 106.42382812 256.74121094 C105.24826355 256.74359772 105.24826355 256.74359772 104.0489502 256.74603271 C101.68995109 256.88304389 101.68995109 256.88304389 99 259 Z M688 396 C687.67 396.66 687.34 397.32 687 398 C688.65 398 690.3 398 692 398 C691.67 397.34 691.34 396.68 691 396 C690.01 396 689.02 396 688 396 Z M770 396 C770 396.66 770 397.32 770 398 C770.66 398 771.32 398 772 398 C772 397.34 772 396.68 772 396 C771.34 396 770.68 396 770 396 Z M686 399 C686 426.06 686 453.12 686 481 C714.71 481 743.42 481 773 481 C772.67 453.94 772.34 426.88 772 399 C743.62 399 715.24 399 686 399 Z M-267 626 C-268.21004832 626.98966726 -268.21004832 626.98966726 -268.12025452 628.90455627 C-268.11803391 629.73728561 -268.11581329 630.57001495 -268.11352539 631.42797852 C-268.11344986 632.36887833 -268.11337433 633.30977814 -268.11329651 634.27919006 C-268.10813522 635.30209641 -268.10297394 636.32500275 -268.09765625 637.37890625 C-268.0962413 638.42070541 -268.09482635 639.46250458 -268.09336853 640.53587341 C-268.0877508 643.87811094 -268.0751953 647.22028257 -268.0625 650.5625 C-268.05748728 652.82226466 -268.05292398 655.08203037 -268.04882812 657.34179688 C-268.03777561 662.89455391 -268.02102024 668.44727225 -268 674 C-267.34 674 -266.68 674 -266 674 C-266 658.16 -266 642.32 -266 626 C-266.33 626 -266.66 626 -267 626 Z " fill="#5A13D6" transform="translate(957,540)"/>
<path d="M0 0 C20.79 0 41.58 0 63 0 C62.67 0.66 62.34 1.32 62 2 C66.5838914 3.09315246 71.12511007 3.32282625 75.8125 3.5625 C76.99489258 3.62727539 76.99489258 3.62727539 78.20117188 3.69335938 C80.13394215 3.79878321 82.06695026 3.89983094 84 4 C84.33 4.66 84.66 5.32 85 6 C87.54941373 6.31241371 90.00361513 6.51303421 92.5625 6.625 C93.27341797 6.66367187 93.98433594 6.70234375 94.71679688 6.7421875 C96.47742425 6.83671783 98.23867728 6.91945817 100 7 C100.33 7.99 100.66 8.98 101 10 C104.96 10.33 108.92 10.66 113 11 C112.67 11.99 112.34 12.98 112 14 C117.445 14.495 117.445 14.495 123 15 C123 15.99 123 16.98 123 18 C123.63808594 18.04898438 124.27617188 18.09796875 124.93359375 18.1484375 C125.75988281 18.22320313 126.58617187 18.29796875 127.4375 18.375 C128.26121094 18.44460938 129.08492187 18.51421875 129.93359375 18.5859375 C130.61550781 18.72257813 131.29742188 18.85921875 132 19 C132.33 19.66 132.66 20.32 133 21 C134.89533342 21.46523063 134.89533342 21.46523063 137.0625 21.625 C138.361875 21.74875 139.66125 21.8725 141 22 C141.33 22.99 141.66 23.98 142 25 C144.31 25.33 146.62 25.66 149 26 C149.33 26.99 149.66 27.98 150 29 C151.98 29.33 153.96 29.66 156 30 C156 30.66 156 31.32 156 32 C156.969375 32.28875 157.93875 32.5775 158.9375 32.875 C162 34 162 34 163 36 C166.02934491 36.65772428 166.02934491 36.65772428 169 37 C169.33 37.99 169.66 38.98 170 40 C171.65 40.33 173.3 40.66 175 41 C175 41.99 175 42.98 175 44 C176.98 44.33 178.96 44.66 181 45 C181.33 45.99 181.66 46.98 182 48 C182.99 48.33 183.98 48.66 185 49 C185.33 49.66 185.66 50.32 186 51 C188.52733235 51.65555119 188.52733235 51.65555119 191 52 C191 52.99 191 53.98 191 55 C192.65 55.33 194.3 55.66 196 56 C196.33 56.99 196.66 57.98 197 59 C197.99 59.33 198.98 59.66 200 60 C200.33 60.99 200.66 61.98 201 63 C201.99 63.33 202.98 63.66 204 64 C204 64.99 204 65.98 204 67 C205.32 67 206.64 67 208 67 C208 68.32 208 69.64 208 71 C209.32 71 210.64 71 212 71 C212.33 71.99 212.66 72.98 213 74 C213.99 74.33 214.98 74.66 216 75 C216 75.99 216 76.98 216 78 C217.32 78.33 218.64 78.66 220 79 C220 79.66 220 80.32 220 81 C220.99 81.33 221.98 81.66 223 82 C223 83.32 223 84.64 223 86 C224.32 86 225.64 86 227 86 C227 87.32 227 88.64 227 90 C227.99 90 228.98 90 230 90 C230.33 90.99 230.66 91.98 231 93 C231.99 93.33 232.98 93.66 234 94 C234 94.99 234 95.98 234 97 C235.32 97.33 236.64 97.66 238 98 C238 98.66 238 99.32 238 100 C238.66 100.66 239.32 101.32 240 102 C242 104 242 104 242.5 106.0625 C242.665 106.701875 242.83 107.34125 243 108 C243.66 108.33 244.32 108.66 245 109 C245 109.99 245 110.98 245 112 C246.32 112 247.64 112 249 112 C249.33 114.64 249.66 117.28 250 120 C250.99 120 251.98 120 253 120 C253.33 120.99 253.66 121.98 254 123 C254.99 123.33 255.98 123.66 257 124 C257 126.31 257 128.62 257 131 C257.99 131 258.98 131 260 131 C260.33 133.31 260.66 135.62 261 138 C261.99 138 262.98 138 264 138 C264 139.32 264 140.64 264 142 C264.66 142 265.32 142 266 142 C268 144 268 144 268.125 147.125 C268.063125 148.548125 268.063125 148.548125 268 150 C269.9254644 151.1490712 269.9254644 151.1490712 272 151 C272.33 153.97 272.66 156.94 273 160 C273.99 160 274.98 160 276 160 C276.1953125 162.05078125 276.390625 164.1015625 276.5859375 166.15234375 C276.72257812 166.76207031 276.85921875 167.37179687 277 168 C277.99 168.495 277.99 168.495 279 169 C279.4140625 171.50390625 279.4140625 171.50390625 279.625 174.5625 C279.69976563 175.57441406 279.77453125 176.58632812 279.8515625 177.62890625 C279.90054688 178.41136719 279.94953125 179.19382812 280 180 C280.99 180 281.98 180 283 180 C283 183.63 283 187.26 283 191 C284.32 191 285.64 191 287 191 C287 195.95 287 200.9 287 206 C288.32 206 289.64 206 291 206 C291 212.27 291 218.54 291 225 C291.99 225 292.98 225 294 225 C294 250.74 294 276.48 294 303 C293.01 303 292.02 303 291 303 C291 309.27 291 315.54 291 322 C289.68 322 288.36 322 287 322 C287 326.62 287 331.24 287 336 C285.68 336.33 284.36 336.66 283 337 C283 340.63 283 344.26 283 348 C282.01 348 281.02 348 280 348 C279.67 351.63 279.34 355.26 279 359 C278.01 359 277.02 359 276 359 C276 361.64 276 364.28 276 367 C274.68 367 273.36 367 272 367 C272 369.97 272 372.94 272 376 C271.01 375.67 270.02 375.34 269 375 C268.67 377.64 268.34 380.28 268 383 C267.34 383 266.68 383 266 383 C265.34 385.31 264.68 387.62 264 390 C263.34 390 262.68 390 262 390 C261.34 392.31 260.68 394.62 260 397 C259.01 397 258.02 397 257 397 C257 399.31 257 401.62 257 404 C255.68 404 254.36 404 253 404 C253 405.32 253 406.64 253 408 C252.01 408 251.02 408 250 408 C249.67 410.31 249.34 412.62 249 415 C247.68 415.33 246.36 415.66 245 416 C245 416.99 245 417.98 245 419 C244.01 419 243.02 419 242 419 C242 420.65 242 422.3 242 424 C241.01 424 240.02 424 239 424 C238.855625 424.598125 238.71125 425.19625 238.5625 425.8125 C238.1127561 427.56150404 237.57107659 429.28677023 237 431 C236.01 431 235.02 431 234 431 C234 431.99 234 432.98 234 434 C233.01 434.33 232.02 434.66 231 435 C230.67 435.99 230.34 436.98 230 438 C229.01 438.33 228.02 438.66 227 439 C227 439.99 227 440.98 227 442 C225.68 442 224.36 442 223 442 C223 443.32 223 444.64 223 446 C222.01 446.33 221.02 446.66 220 447 C217.63493157 449.00121175 217.0106678 449.96799661 216 453 C214.68 453 213.36 453 212 453 C212 454.32 212 455.64 212 457 C210.68 457 209.36 457 208 457 C208 458.32 208 459.64 208 461 C206.68 461 205.36 461 204 461 C204 461.99 204 462.98 204 464 C203.01 464.33 202.02 464.66 201 465 C200.67 465.99 200.34 466.98 200 468 C197.9375 468.6875 197.9375 468.6875 196 469 C196 469.99 196 470.98 196 472 C194.35 472.33 192.7 472.66 191 473 C190.67 473.99 190.34 474.98 190 476 C188.35 476 186.7 476 185 476 C185 476.99 185 477.98 185 479 C183.35 479.33 181.7 479.66 180 480 C180 480.99 180 481.98 180 483 C178.35 483.33 176.7 483.66 175 484 C175 484.99 175 485.98 175 487 C173.02 487.33 171.04 487.66 169 488 C168.67 488.99 168.34 489.98 168 491 C166.02 491 164.04 491 162 491 C162 491.99 162 492.98 162 494 C159.69 494.33 157.38 494.66 155 495 C155.33 495.99 155.66 496.98 156 498 C153.69 498.33 151.38 498.66 149 499 C149 499.99 149 500.98 149 502 C146.36 502.33 143.72 502.66 141 503 C140.67 503.99 140.34 504.98 140 506 C137.36 506 134.72 506 132 506 C132 506.99 132 507.98 132 509 C128.7 509.33 125.4 509.66 122 510 C122.33 510.99 122.66 511.98 123 513 C119.04 513.33 115.08 513.66 111 514 C111.33 514.99 111.66 515.98 112 517 C108.04 517.33 104.08 517.66 100 518 C100 518.66 100 519.32 100 520 C94.72 520.66 89.44 521.32 84 522 C84 522.66 84 523.32 84 524 C83.13048706 524.03758423 83.13048706 524.03758423 82.2434082 524.07592773 C79.59957893 524.19246234 76.95605591 524.31492682 74.3125 524.4375 C72.94448242 524.49647461 72.94448242 524.49647461 71.54882812 524.55664062 C70.66259766 524.59853516 69.77636719 524.64042969 68.86328125 524.68359375 C67.64572144 524.73858032 67.64572144 524.73858032 66.40356445 524.79467773 C63.87855515 525.01037431 61.47399303 525.45899452 59 526 C59.66 526.66 60.32 527.32 61 528 C41.53 528 22.06 528 2 528 C2.66 527.34 3.32 526.68 4 526 C0.68856994 525.27586627 -2.47844221 524.83645745 -5.86328125 524.68359375 C-7.19262695 524.62075195 -7.19262695 524.62075195 -8.54882812 524.55664062 C-9.9168457 524.49766602 -9.9168457 524.49766602 -11.3125 524.4375 C-12.24384766 524.39431641 -13.17519531 524.35113281 -14.13476562 524.30664062 C-16.42304454 524.20102775 -18.71142372 524.09892248 -21 524 C-21 523.34 -21 522.68 -21 522 C-26.28 521.34 -31.56 520.68 -37 520 C-37 519.34 -37 518.68 -37 518 C-41.29 517.67 -45.58 517.34 -50 517 C-50 516.01 -50 515.02 -50 514 C-53.3 513.67 -56.6 513.34 -60 513 C-60.33 512.01 -60.66 511.02 -61 510 C-62.299375 509.87625 -63.59875 509.7525 -64.9375 509.625 C-67.15234375 509.4140625 -67.15234375 509.4140625 -69 509 C-69.33 508.34 -69.66 507.68 -70 507 C-72.32156597 506.59270772 -74.6568787 506.25561323 -77 506 C-77.33 505.01 -77.66 504.02 -78 503 C-80.64 502.67 -83.28 502.34 -86 502 C-85.67 501.01 -85.34 500.02 -85 499 C-87.64 498.67 -90.28 498.34 -93 498 C-93 497.34 -93 496.68 -93 496 C-93.969375 495.71125 -94.93875 495.4225 -95.9375 495.125 C-99 494 -99 494 -100 492 C-102.52733235 491.34444881 -102.52733235 491.34444881 -105 491 C-105.33 490.01 -105.66 489.02 -106 488 C-107.98 487.67 -109.96 487.34 -112 487 C-112.495 485.515 -112.495 485.515 -113 484 C-113.66 483.835 -114.32 483.67 -115 483.5 C-115.66 483.335 -116.32 483.17 -117 483 C-117.495 481.515 -117.495 481.515 -118 480 C-119.65 479.67 -121.3 479.34 -123 479 C-123 478.34 -123 477.68 -123 477 C-124.65 476.67 -126.3 476.34 -128 476 C-128 475.01 -128 474.02 -128 473 C-128.639375 472.896875 -129.27875 472.79375 -129.9375 472.6875 C-130.9584375 472.3471875 -130.9584375 472.3471875 -132 472 C-132.495 470.515 -132.495 470.515 -133 469 C-135.01508358 468.26676204 -135.01508358 468.26676204 -137 468 C-137 467.01 -137 466.02 -137 465 C-138.32 464.67 -139.64 464.34 -141 464 C-141 463.01 -141 462.02 -141 461 C-142.65 461 -144.3 461 -146 461 C-146.495 459.515 -146.495 459.515 -147 458 C-149.00016466 456.79117904 -149.00016466 456.79117904 -151 456 C-151 455.34 -151 454.68 -151 454 C-151.99 453.67 -152.98 453.34 -154 453 C-154.495 451.515 -154.495 451.515 -155 450 C-155.99 449.67 -156.98 449.34 -158 449 C-158 448.01 -158 447.02 -158 446 C-158.99 446 -159.98 446 -161 446 C-161.495 444.515 -161.495 444.515 -162 443 C-162.99 442.34 -163.98 441.68 -165 441 C-167 438 -167 438 -167 435 C-167.99 435 -168.98 435 -170 435 C-170 433.68 -170 432.36 -170 431 C-171.32 430.67 -172.64 430.34 -174 430 C-174 429.34 -174 428.68 -174 428 C-174.99 427.67 -175.98 427.34 -177 427 C-177 425.68 -177 424.36 -177 423 C-178.32 423 -179.64 423 -181 423 C-181.495 419.535 -181.495 419.535 -182 416 C-182.99 416 -183.98 416 -185 416 C-185 414.68 -185 413.36 -185 412 C-185.99 412 -186.98 412 -188 412 C-188.268125 411.05125 -188.53625 410.1025 -188.8125 409.125 C-189.74986588 405.74732727 -189.74986588 405.74732727 -193 404 C-192.67 403.01 -192.34 402.02 -192 401 C-193.32 401 -194.64 401 -196 401 C-196.495 397.535 -196.495 397.535 -197 394 C-197.99 393.67 -198.98 393.34 -200 393 C-200.33 391.02 -200.66 389.04 -201 387 C-201.99 386.67 -202.98 386.34 -204 386 C-204.12375 384.865625 -204.2475 383.73125 -204.375 382.5625 C-204.58125 381.386875 -204.7875 380.21125 -205 379 C-205.66 378.67 -206.32 378.34 -207 378 C-207.40729228 375.67843403 -207.74438677 373.3431213 -208 371 C-208.99 371 -209.98 371 -211 371 C-211 368.36 -211 365.72 -211 363 C-212.32 363 -213.64 363 -215 363 C-215.33 359.37 -215.66 355.74 -216 352 C-216.99 352.33 -217.98 352.66 -219 353 C-219.33 349.04 -219.66 345.08 -220 341 C-220.66 341 -221.32 341 -222 341 C-222.33 337.04 -222.66 333.08 -223 329 C-223.99 329 -224.98 329 -226 329 C-226.33 323.06 -226.66 317.12 -227 311 C-227.99 311.33 -228.98 311.66 -230 312 C-230.03758423 311.15405273 -230.03758423 311.15405273 -230.07592773 310.29101562 C-230.19318301 307.69385118 -230.31531266 305.0969369 -230.4375 302.5 C-230.47681641 301.613125 -230.51613281 300.72625 -230.55664062 299.8125 C-230.81084087 294.49384873 -231.26676337 289.2743744 -232 284 C-232.33 285.65 -232.66 287.3 -233 289 C-233.33 289 -233.66 289 -234 289 C-234 272.5 -234 256 -234 239 C-233.34 240.32 -232.68 241.64 -232 243 C-231.05196688 237.19230134 -230.69552728 231.43790813 -230.4375 225.5625 C-230.37272461 224.17901367 -230.37272461 224.17901367 -230.30664062 222.76757812 C-230.20145069 220.51183837 -230.09930893 218.25600501 -230 216 C-229.01 216.33 -228.02 216.66 -227 217 C-226.505 208.09 -226.505 208.09 -226 199 C-225.34 198.67 -224.68 198.34 -224 198 C-223.38255961 195.25524825 -223.38255961 195.25524825 -223 192.0625 C-222.22008253 186.22008253 -222.22008253 186.22008253 -220 184 C-219.53993654 181.79749008 -219.53993654 181.79749008 -219.375 179.375 C-219.30023437 178.55773438 -219.22546875 177.74046875 -219.1484375 176.8984375 C-219.09945312 176.27195312 -219.05046875 175.64546875 -219 175 C-218.01 175.33 -217.02 175.66 -216 176 C-215.67 172.37 -215.34 168.74 -215 165 C-214.01 164.67 -213.02 164.34 -212 164 C-211.67 161.69 -211.34 159.38 -211 157 C-210.01 157 -209.02 157 -208 157 C-207.67 154.36 -207.34 151.72 -207 149 C-206.34 149 -205.68 149 -205 149 C-204.67 146.36 -204.34 143.72 -204 141 C-203.01 140.67 -202.02 140.34 -201 140 C-200.67 138.35 -200.34 136.7 -200 135 C-199.01 134.67 -198.02 134.34 -197 134 C-196.67 131.69 -196.34 129.38 -196 127 C-194.68 127 -193.36 127 -192 127 C-192.33 125.68 -192.66 124.36 -193 123 C-192.01 123 -191.02 123 -190 123 C-189.855625 122.401875 -189.71125 121.80375 -189.5625 121.1875 C-189.1127561 119.43849596 -188.57107659 117.71322977 -188 116 C-187.01 116 -186.02 116 -185 116 C-185 114.68 -185 113.36 -185 112 C-184.01 112 -183.02 112 -182 112 C-181.67 109.69 -181.34 107.38 -181 105 C-179.68 105 -178.36 105 -177 105 C-177 103.68 -177 102.36 -177 101 C-176.01 100.67 -175.02 100.34 -174 100 C-174 99.01 -174 98.02 -174 97 C-173.01 96.67 -172.02 96.34 -171 96 C-170.505 94.515 -170.505 94.515 -170 93 C-169.34 92.34 -168.68 91.68 -168 91 C-167.525625 90.13375 -167.05125 89.2675 -166.5625 88.375 C-165.7890625 87.199375 -165.7890625 87.199375 -165 86 C-164.01 86 -163.02 86 -162 86 C-162 84.68 -162 83.36 -162 82 C-160.68 82 -159.36 82 -158 82 C-158 81.01 -158 80.02 -158 79 C-157.01 78.67 -156.02 78.34 -155 78 C-154.505 76.515 -154.505 76.515 -154 75 C-153.01 74.67 -152.02 74.34 -151 74 C-151 73.01 -151 72.02 -151 71 C-149.68 70.67 -148.36 70.34 -147 70 C-147 69.01 -147 68.02 -147 67 C-145.35 66.67 -143.7 66.34 -142 66 C-142 65.34 -142 64.68 -142 64 C-140.35 63.67 -138.7 63.34 -137 63 C-137 62.01 -137 61.02 -137 60 C-135.68 59.67 -134.36 59.34 -133 59 C-133 58.01 -133 57.02 -133 56 C-131.35 56 -129.7 56 -128 56 C-128 54.68 -128 53.36 -128 52 C-126.35 52 -124.7 52 -123 52 C-123 51.01 -123 50.02 -123 49 C-121.02 48.67 -119.04 48.34 -117 48 C-117 47.01 -117 46.02 -117 45 C-115.68 44.67 -114.36 44.34 -113 44 C-113 43.01 -113 42.02 -113 41 C-110.69 41 -108.38 41 -106 41 C-106 39.68 -106 38.36 -106 37 C-103.03 36.505 -103.03 36.505 -100 36 C-100 35.34 -100 34.68 -100 34 C-96.535 33.505 -96.535 33.505 -93 33 C-93 32.01 -93 31.02 -93 30 C-90.03 29.505 -90.03 29.505 -87 29 C-86.67 28.01 -86.34 27.02 -86 26 C-83.69 25.67 -81.38 25.34 -79 25 C-78.67 24.01 -78.34 23.02 -78 22 C-75.36 21.67 -72.72 21.34 -70 21 C-70 20.34 -70 19.68 -70 19 C-66.7 18.67 -63.4 18.34 -60 18 C-60.33 17.01 -60.66 16.02 -61 15 C-56.05 14.505 -56.05 14.505 -51 14 C-51 13.01 -51 12.02 -51 11 C-46.71 10.67 -42.42 10.34 -38 10 C-38 9.01 -38 8.02 -38 7 C-36.85660156 6.95101562 -35.71320313 6.90203125 -34.53515625 6.8515625 C-33.04424527 6.77654811 -31.55336108 6.70099972 -30.0625 6.625 C-29.30775391 6.5940625 -28.55300781 6.563125 -27.77539062 6.53125 C-25.84492605 6.4273685 -23.92057919 6.22104386 -22 6 C-21.67 5.34 -21.34 4.68 -21 4 C-19.81921875 3.95101562 -18.6384375 3.90203125 -17.421875 3.8515625 C-15.86456063 3.77651121 -14.30727009 3.70096439 -12.75 3.625 C-11.97269531 3.5940625 -11.19539063 3.563125 -10.39453125 3.53125 C-4.92620093 3.27341758 -4.92620093 3.27341758 0 1 C0 0.67 0 0.34 0 0 Z " fill="#5A13D6" transform="translate(1049,924)"/>
<path d="M0 0 C29.7 0 59.4 0 90 0 C90 32.34 90 64.68 90 98 C89.01 98.495 89.01 98.495 88 99 C88.33 99.66 88.66 100.32 89 101 C59.96 101 30.92 101 1 101 C1.495 100.01 1.495 100.01 2 99 C1.34 98.67 0.68 98.34 0 98 C0 65.66 0 33.32 0 0 Z " fill="#5A13D6" transform="translate(1643,572)"/>
<path d="M0 0 C29.04 0 58.08 0 88 0 C88 32.34 88 64.68 88 98 C58.96 98 29.92 98 0 98 C0 65.66 0 33.32 0 0 Z " fill="#5A13D6" transform="translate(1789,658)"/>
<path d="M0 0 C0.33 0 0.66 0 1 0 C1 25.08 1 50.16 1 76 C0.67 76 0.34 76 0 76 C0 50.92 0 25.84 0 0 Z " fill="#5A13D6" transform="translate(1646,942)"/>
<path d="M0 0 C1.98 0 3.96 0 6 0 C6 0.33 6 0.66 6 1 C4.02 1 2.04 1 0 1 C0 0.67 0 0.34 0 0 Z " fill="#5A13D6" transform="translate(1618,703)"/>
<path d="M0 0 C1.65 0 3.3 0 5 0 C5 0.33 5 0.66 5 1 C3.35 1 1.7 1 0 1 C0 0.67 0 0.34 0 0 Z " fill="#5A13D6" transform="translate(1869,758)"/>
<path d="M0 0 C4 1 4 1 4 1 Z " fill="#5A13D6" transform="translate(1795,758)"/>
<path d="M0 0 C2 1 2 1 2 1 Z " fill="#5A13D6" transform="translate(1643,793)"/>
<path d="" fill="#5A13D6" transform="translate(0,0)"/>
</svg>
